HIERARCHY
ROOT Hips
{
  OFFSET -31.5692 30.0904 122.763
  CHANNELS 6 Xposition Yposition Zposition Zrotation Xrotation Yrotation
  JOINT LeftUpLeg
  {
    OFFSET 8.64259 1.95398 -2.38835
    CHANNELS 3 Zrotation Xrotation Yrotation
    JOINT LeftLeg
    {
      OFFSET 43.7702 0 0
      CHANNELS 3 Zrotation Xrotation Yrotation
      JOINT LeftFoot
      {
        OFFSET 40.6238 0 0
        CHANNELS 3 Zrotation Xrotation Yrotation
        JOINT LeftToeBase
        {
          OFFSET 12.7242 0 0
          CHANNELS 3 Zrotation Xrotation Yrotation
          End Site
          {
            OFFSET 0 0 0
          }
        }
      }
    }
  }
  JOINT RightUpLeg
  {
    OFFSET -8.2249 1.95398 -2.59336
    CHANNELS 3 Zrotation Xrotation Yrotation
    JOINT RightLeg
    {
      OFFSET 43.5653 0 0
      CHANNELS 3 Zrotation Xrotation Yrotation
      JOINT RightFoot
      {
        OFFSET 40.6238 0 0
        CHANNELS 3 Zrotation Xrotation Yrotation
        JOINT RightToeBase
        {
          OFFSET 12.7242 0 0
          CHANNELS 3 Zrotation Xrotation Yrotation
          End Site
          {
            OFFSET 0 0 0
          }
        }
      }
    }
  }
  JOINT Spine
  {
    OFFSET 0.165834 0.87714 6.61349
    CHANNELS 3 Zrotation Xrotation Yrotation
    JOINT Spine1
    {
      OFFSET 7.38963 1.71661e-005 0
      CHANNELS 3 Zrotation Xrotation Yrotation
      JOINT Spine2
      {
        OFFSET 11.9445 1.14441e-005 0
        CHANNELS 3 Zrotation Xrotation Yrotation
        JOINT Spine3
        {
          OFFSET 14.7254 4.19617e-005 0
          CHANNELS 3 Zrotation Xrotation Yrotation
          JOINT Spine4
          {
            OFFSET 10.9679 0 0
            CHANNELS 3 Zrotation Xrotation Yrotation
            JOINT RightShoulder
            {
              OFFSET 2.46616 -1.6653 3.69651
              CHANNELS 3 Zrotation Xrotation Yrotation
              JOINT RightArm
              {
                OFFSET 13.0012 0 0
                CHANNELS 3 Zrotation Xrotation Yrotation
                JOINT RightForeArm
                {
                  OFFSET 28.7848 1.62311e-005 0
                  CHANNELS 3 Zrotation Xrotation Yrotation
                  JOINT RightHand
                  {
                    OFFSET 26.5688 1.62095e-005 0
                    CHANNELS 3 Zrotation Xrotation Yrotation
                    End Site
                    {
                      OFFSET 0 0 0
                    }
                  }
                }
              }
            }
            JOINT LeftShoulder
            {
              OFFSET 2.38034 -1.29275 -3.7523
              CHANNELS 3 Zrotation Xrotation Yrotation
              JOINT LeftArm
              {
                OFFSET 16.3182 6.07031e-005 0
                CHANNELS 3 Zrotation Xrotation Yrotation
                JOINT LeftForeArm
                {
                  OFFSET 27.0901 0 0
                  CHANNELS 3 Zrotation Xrotation Yrotation
                  JOINT LeftHand
                  {
                    OFFSET 24.5451 1.51738e-005 0
                    CHANNELS 3 Zrotation Xrotation Yrotation
                    End Site
                    {
                      OFFSET 0 0 0
                    }
                  }
                }
              }
            }
            JOINT Neck
            {
              OFFSET 5.0226 -0.0266342 0
              CHANNELS 3 Zrotation Xrotation Yrotation
              JOINT Head
              {
                OFFSET 6.69364 2.86102e-005 0
                CHANNELS 3 Zrotation Xrotation Yrotation
                End Site
                {
                  OFFSET 0 0 0
                }
              }
            }
          }
        }
      }
    }
  }
}
MOTION
Frames:	15
Frame Time:	0.0416667
24.6908 97.6281 -44.5891 -130.259 -76.1823 -134.371 -174.533 16.3687 81.5852 -26.3842 -1.34764 -3.80783 64.5834 1.66301 -0.689622 6.83528 -14.3255 5.15331 166.049 -13.6774 78.1842 -42.2807 -29.1853 -7.53208 64.2399 -2.55723 -1.89197 40.6548 -5.64642 2.79187 1.41697 7.86025 -89.9202 11.1579 2.85734 -0.120175 -0.509969 2.84929 -0.245929 -23.0692 2.76125 0.744807 -3.05655 2.76126 0.7448 88.1011 -29.2217 -110.843 36.0599 -5.19762 -10.5388 -0.061571 -31.8269 -20.1334 -24.3933 0.223232 -12.4289 -85.06 -56.6237 86.9647 -26.0533 3.30533 8.43518 -1.32729 4.07334 -0.0028415 -1.00262 0.0411546 -14.4897 -5.38136 1.29554 6.37694 -5.85868 0.756274 -2.86581 
25.8202 98.1712 -36.8084 -131.971 -75.0331 -138.178 -175.713 10.7325 77.858 -27.7734 -3.13764 -3.84181 69.5678 4.46984 0.603355 7.92155 -13.568 5.01741 171.741 -0.524085 77.5062 -65.3207 -27.3098 -10.3958 57.0281 2.54324 1.16797 26.6586 0.530097 2.00286 1.15874 7.95235 -89.7059 10.9665 2.44307 0.352716 -0.702226 2.45622 0.244776 -23.2528 2.22407 1.07099 -3.2401 2.22407 1.07098 88.4052 -29.1758 -110.263 38.919 -5.84586 -8.17595 3.26269 -31.5434 -15.5178 -22.7131 -0.117179 -10.7614 -85.3052 -56.4099 86.5959 -21.4566 4.60392 -2.38929 -1.95579 5.07769 -0.0611871 2.22115 -0.38875 -17.1096 -6.7972 2.13024 8.23763 -4.91034 1.48857 -2.41736 
26.3621 98.8431 -30.9404 -141.305 -76.6272 -146.822 -176.501 5.79687 77.1471 -26.5555 -1.05513 -2.97067 72.2668 6.19802 0.575921 9.4566 -13.2464 6.05403 176.655 9.48202 81.4387 -68.1811 -19.4739 -8.95607 65.1534 -2.61981 -1.2406 27.9356 -0.0971777 2.3247 0.701111 8.01634 -89.841 10.8423 1.46945 0.177016 -0.827859 1.47581 0.112146 -23.3689 1.34829 0.610541 -3.35624 1.3483 0.610538 88.5728 -29.9241 -109.606 38.8132 -5.58233 -4.68275 5.77077 -31.6061 -12.2888 -22.2726 -0.293353 -9.73083 -85.3046 -54.6589 86.3838 -17.1634 2.20751 -12.1154 -0.186307 8.27241 -2.64403 6.1715 -1.21067 -21.8596 -7.77649 3.2353 9.10193 -4.85 2.58891 -0.432017 
26.3241 99.2878 -25.9593 -163.494 -79.7323 -167.319 -176.725 2.38829 78.4658 -25.7929 4.32357 -1.59159 74.5278 7.53239 0.809341 10.6129 -13.0874 7.00541 179.742 15.8759 85.8872 -53.3331 -14.4006 -7.62815 67.1755 -4.11124 -1.00563 27.2434 0.504058 0.985832 0.25775 8.05962 -90.1911 10.7564 0.425171 -0.41881 -0.914525 0.406332 -0.437132 -23.45 0.53139 -0.271669 -3.43736 0.531389 -0.271679 89.0732 -29.9425 -108.615 38.0959 -3.80728 0.232918 5.26307 -31.4543 -12.3905 -21.8119 -0.307064 -9.70688 -85.951 -51.956 85.0854 -15.6491 -1.32114 -20.969 2.03398 11.062 -6.06827 9.85363 -2.24598 -25.3452 -7.65555 3.38097 9.16647 -4.02919 2.70538 0.898179 
26.3307 99.1311 -20.6276 162.025 -80.4307 158.416 -176.17 -0.964064 79.5826 -25.6876 11.4333 -1.13706 77.2751 9.46303 1.38521 9.27586 -13.1993 5.78745 -177.684 17.734 86.9612 -33.3571 -24.027 -7.96766 63.493 -3.23353 -1.01293 29.0933 -0.419659 1.38237 -0.190474 8.06555 -90.2632 10.7415 -0.500601 -0.477209 -0.929456 -0.521114 -0.454727 -23.4643 -0.334046 -0.605596 -3.45166 -0.334044 -0.605604 89.3085 -30.2722 -108.018 38.0024 -3.12769 3.66381 5.97836 -30.3141 -11.3079 -21.8687 -0.241711 -9.84026 -86.3233 -49.4275 84.1568 -14.5926 -3.24705 -27.7504 2.31375 10.0415 -6.89292 15.8827 -3.60232 -25.8427 -6.94978 3.3104 7.43633 -4.12702 2.70822 1.74444 
26.6765 98.4671 -14.4793 135.191 -77.3897 131.345 -174.732 -5.32011 81.5931 -25.936 19.3012 -1.33151 80.4836 12.1967 1.38811 10.4315 -12.8509 6.41045 -178.576 15.4854 86.2772 -13.9739 -43.9458 -5.67049 60.8645 -2.23342 1.28446 34.0778 -2.42316 -0.160861 -0.550153 8.08965 -90.2672 10.6925 -1.21868 -0.419858 -0.977951 -1.23598 -0.365817 -23.5159 -1.03616 -0.766731 -3.50328 -1.03616 -0.76674 89.5283 -31.2743 -107.197 37.8672 -2.63767 5.62193 6.21656 -29.8394 -10.9088 -20.0301 -0.156336 -10.7093 -87.2134 -48.2433 82.6055 -15.7461 -3.84904 -30.3178 3.27826 8.823 -8.01632 14.0152 -3.6173 -28.3907 -6.50447 2.6626 6.0129 -3.96394 2.14953 2.32129 
27.2335 97.5888 -7.52671 120.32 -71.9119 116.105 -173.576 -10.7765 84.4659 -25.1301 27.1203 -0.734906 83.2843 15.5494 1.16443 11.2907 -13.0581 7.68891 -178.024 15.0793 87.2663 -16.6189 -50.2512 -8.40479 60.3339 -1.06449 2.21775 37.3434 -3.91515 -0.289425 -0.911175 8.02644 -90.2305 10.8194 -1.92064 -0.280578 -0.850117 -1.93114 -0.195745 -23.395 -1.74751 -0.845008 -3.38232 -1.74751 -0.84501 89.7697 -32.4994 -106.279 38.3115 -2.22022 6.18036 6.27814 -30.0472 -10.4591 -21.5706 -0.250079 -9.75184 -87.9086 -48.364 81.5642 -17.8946 -1.94917 -27.8503 3.37864 10.7013 -7.61523 14.7626 -3.55547 -27.134 -6.42771 2.14003 4.2551 -4.6708 1.74717 2.94933 
28.3304 97.4148 0.0219578 112.022 -65.1302 108.746 -172.838 -15.6742 88.2925 -24.9522 32.728 2.14984 83.2617 16.4073 1.12317 14.1932 -11.8045 8.74944 -177.128 15.9387 88.8506 -29.0292 -45.9515 -10.292 59.1924 -0.281165 4.16085 34.1181 -1.92524 -3.51189 -1.00034 7.82018 -90.3497 11.2297 -2.15342 -0.483545 -0.439579 -2.17261 -0.388267 -22.9858 -1.90852 -1.10859 -2.97312 -1.90852 -1.10859 89.9245 -32.9995 -105.802 39.4055 -2.16207 6.34204 6.85155 -29.2764 -9.4217 -18.8234 -0.150477 -10.9305 -86.1086 -49.0844 84.4302 -21.7446 4.3722 -24.0517 0.57845 13.8119 -2.45656 10.5146 -2.18484 -24.2754 -7.08726 0.860077 3.02255 -5.0729 0.58953 2.59895 
29.7588 98.5518 6.8251 106.787 -55.6148 106.478 -172.331 -14.4128 93.7433 -34.232 35.3059 7.26583 77.4358 12.72 3.10041 20.0741 -7.76437 7.9086 179.636 10.8336 91.6151 -27.3542 -37.994 -6.4945 62.5594 -2.10626 2.02989 31.372 -1.4943 1.67985 -0.904873 7.72131 -90.7843 11.4178 -2.16651 -1.34325 -0.251952 -2.22352 -1.24658 -22.7909 -1.66271 -1.93227 -2.77831 -1.66271 -1.93228 90.0966 -31.3965 -106.048 40.0544 -2.69514 5.44421 6.71579 -28.7023 -10.0761 -23.2047 -0.432793 -8.11129 -86.9744 -49.999 83.2648 -26.7606 9.32332 -17.153 -2.79467 12.1225 -0.00441211 4.88472 -0.392878 -16.3991 -7.01292 -0.954128 1.3117 -5.26531 -1.09484 2.55174 
30.8685 99.2305 11.7637 102.302 -42.069 103.531 -173.635 -4.30555 98.3011 -51.7588 29.3268 8.68937 69.2 6.32479 2.10703 17.9958 -7.19206 4.1471 175.492 5.35731 92.6721 -23.3967 -28.8021 -2.17732 65.7644 -3.95891 -0.100417 29.1494 -1.08607 4.63874 -0.7265 7.75109 -90.9184 11.3564 -1.87387 -1.64213 -0.314168 -1.94431 -1.55807 -22.847 -1.29382 -2.12926 -2.83435 -1.29382 -2.12927 90.1798 -32.2832 -105.568 36.8312 -2.9456 3.76986 5.79791 -31.398 -11.6704 -22.3831 -0.414037 -8.92275 -87.3566 -49.066 82.5301 -29.2995 10.495 -10.9763 -4.59946 13.0491 -0.00720672 0.934443 0.481116 -11.2826 -4.32295 -3.60736 -3.00791 -4.89076 -3.28468 1.62753 
32.0815 99.4242 15.1624 99.3879 -25.5752 101.28 -175.713 10.1774 99.2192 -64.7106 15.5124 7.62162 65.1702 2.56925 1.2266 11.2162 -10.134 2.46671 172.902 0.0885139 93.5361 -20.2916 -15.1142 1.68603 67.2458 -3.81543 3.11064 31.2836 -0.929753 -1.26118 -0.515663 7.99573 -91.0174 10.8663 -1.4968 -1.88154 -0.805094 -1.57812 -1.81388 -23.332 -0.862285 -2.24425 -3.31938 -0.862289 -2.24425 89.7093 -32.3091 -106.462 31.593 -2.67594 2.92133 5.51343 -30.014 -12.3406 -24.279 -0.400319 -8.48635 -87.8328 -49.5534 81.8948 -25.699 7.02094 -5.34027 -3.19192 10.7121 -0.00500851 1.31856 0.116484 -14.5573 -0.406602 -6.71206 -7.64779 -2.48061 -5.62038 0.702571 
34.1005 99.2928 17.3172 97.4505 -8.8056 99.1699 -175.835 19.2466 96.1434 -63.706 17.9512 5.11592 67.0457 4.12252 0.745934 11.3554 -10.7452 3.70271 171.55 -3.04275 92.872 -19.6118 -0.80022 3.2235 70.4963 -3.67624 4.71087 31.6634 -0.750575 -3.36059 -0.170667 8.04687 -90.8653 10.7713 -0.739 -1.65174 -0.900471 -0.810978 -1.61763 -23.4274 -0.208523 -1.79743 -3.4147 -0.208511 -1.79744 89.5156 -31.2899 -107.216 25.8852 -2.47206 4.206 8.26256 -32.3332 -8.56907 -21.4259 -0.527799 -8.59974 -87.8706 -49.0271 81.7418 -21.6687 6.77778 -5.26841 -3.02345 5.5106 0.154386 4.86679 -0.619922 -16.1155 1.14073 -8.49762 -9.81304 -1.73336 -6.95786 -1.69382 
36.9698 99.0357 17.9947 95.2364 3.74898 92.9022 -175.497 23.7305 89.3566 -51.3064 16.6815 1.56533 69.8584 6.05359 -0.207329 13.1522 -9.28896 2.91723 170.413 -4.64156 91.4089 -19.2436 11.5523 3.99908 73.5058 -3.93247 2.54233 30.2246 -0.740144 0.366395 -0.018107 7.86479 -90.5232 11.1419 -0.278964 -1.01409 -0.529373 -0.323334 -1.00084 -23.0614 0.0386943 -1.05105 -3.04871 0.0386954 -1.05105 89.9291 -29.9947 -106.901 23.4229 -1.16158 5.63392 9.2304 -32.5027 -5.6784 -20.8222 -0.834361 -6.60285 -87.704 -49.184 82.0232 -18.428 6.68422 -6.24509 -2.65341 7.68704 -2.26666 5.78391 -0.954174 -19.3466 1.69887 -8.52728 -10.6729 -2.10278 -6.79518 -1.27796 
40.5491 99.1473 17.69 94.4666 12.9398 88.317 -176.479 23.2985 83.0534 -32.4741 8.922 -1.11053 66.3482 3.84695 -0.629417 14.5187 -9.43651 4.69901 170.256 -8.03841 89.9075 -15.5823 21.5771 3.33543 73.7229 -4.045 1.93398 31.5573 -1.49789 1.1848 0.246518 7.84829 -90.14 11.1783 0.425517 -0.321812 -0.492646 0.410987 -0.340238 -23.028 0.50259 -0.179042 -3.01533 0.502594 -0.179048 90.57 -28.2042 -106.305 23.8156 -0.312876 5.69936 6.66533 -25.4583 -7.91994 -22.6961 -0.524722 -6.89104 -87.5036 -50.1743 82.4994 -19.2775 6.56265 -6.6654 -2.04859 4.09933 -3.56818 4.96436 -0.995689 -20.4123 3.46351 -7.74835 -8.30862 -2.60917 -6.25607 -3.1584 
45.1908 98.6967 16.6144 93.5119 15.7052 86.4224 -177.898 21.4884 80.2142 -16.7498 2.58904 -2.11765 62.7486 2.07359 -1.09407 17.378 -8.64509 6.40668 169.572 -10.9403 88.306 -13.3656 24.4954 2.62781 73.6271 -4.18468 2.98921 32.7692 -1.67364 -1.05957 0.793411 7.74578 -89.8196 11.3814 1.66299 0.193362 -0.288451 1.66989 0.119962 -22.831 1.52798 0.684333 -2.81837 1.52799 0.684335 90.0738 -27.6113 -107.555 24.1701 -0.432034 2.46997 4.99172 -24.1096 -10.8096 -23.6748 -0.167407 -8.56849 -87.2092 -52.2295 83.2778 -21.4587 6.13551 -1.95272 -1.97941 2.66764 -4.34217 5.99893 -1.13409 -19.864 4.99558 -5.9558 -5.78909 -2.51234 -4.83517 -3.57388 
